<svg xmlns="http://www.w3.org/2000/svg" xmlns:xlink="http://www.w3.org/1999/xlink" version="1.1" x="0px" y="0px" viewBox="0 0 100 125" enable-background="new 0 0 100 100" xml:space="preserve"><g><g><path d="M23.6,80c-5.6,0-10.2-4.6-10.2-10.2s4.6-10.2,10.2-10.2s10.2,4.6,10.2,10.2S29.2,80,23.6,80z M23.6,61.5    c-4.5,0-8.2,3.7-8.2,8.2S19,78,23.6,78s8.2-3.7,8.2-8.2S28.1,61.5,23.6,61.5z"/></g><g><path d="M30.9,65.2c-0.3,0-0.7-0.2-0.9-0.5c-0.3-0.5-0.1-1.1,0.4-1.4l53.7-31.6c-2.3-2.3-8.7-8.1-13.9-5.2L38.1,45.4    c0.6,1.5,1.4,5.2-3.8,8.7l-14.2,8.2c-0.5,0.3-1.1,0.1-1.4-0.4c-0.3-0.5-0.1-1.1,0.4-1.4l14.2-8.2c3.8-2.6,3.5-5,3-6.2    c-0.4-0.9,0-2,0.9-2.5l32.2-18.8c7.8-4.4,16.8,6.1,17.2,6.5l0.8,0.9L31.5,65.1C31.3,65.2,31.1,65.2,30.9,65.2z"/></g><g><path d="M42.4,42.7c-0.2,0-0.4,0-0.5-0.1L31,36c-0.5-0.3-0.6-0.9-0.3-1.4c0.3-0.5,0.9-0.6,1.4-0.3l10.9,6.6    c0.5,0.3,0.6,0.9,0.3,1.4C43.1,42.5,42.8,42.7,42.4,42.7z"/></g><g><path d="M73.3,75.2c-1.4,0-2.7-0.3-4.1-1.1L42.9,57.8c-0.5-0.3-0.6-0.9-0.3-1.4c0.3-0.5,0.9-0.6,1.4-0.3l26.4,16.4    c5.1,2.9,11.6-3,13.9-5.3L55.6,50.3c-0.5-0.3-0.6-0.9-0.3-1.4s0.9-0.6,1.4-0.3l30.6,18.2l-0.8,0.9C86.2,68,79.9,75.2,73.3,75.2z"/></g><g><path d="M37.5,48.9c-0.2,0-0.3,0-0.5-0.1L19.1,38.4c-0.5-0.3-0.6-0.9-0.4-1.4c0.3-0.5,0.9-0.6,1.4-0.4L38,47    c0.5,0.3,0.6,0.9,0.4,1.4C38.2,48.7,37.9,48.9,37.5,48.9z"/></g><g><path d="M23.6,39.4c-5.6,0-10.2-4.6-10.2-10.2c0-5.6,4.6-10.2,10.2-10.2s10.2,4.6,10.2,10.2C33.8,34.8,29.2,39.4,23.6,39.4z     M23.6,20.9c-4.5,0-8.2,3.7-8.2,8.2s3.7,8.2,8.2,8.2s8.2-3.7,8.2-8.2S28.1,20.9,23.6,20.9z"/></g><g><path d="M44.2,50.4c-1,0-1.8-0.8-1.8-1.8s0.8-1.8,1.8-1.8c1,0,1.8,0.8,1.8,1.8S45.1,50.4,44.2,50.4z M44.2,48.4    c-0.1,0-0.2,0.1-0.2,0.2c0,0.3,0.5,0.3,0.5,0C44.4,48.5,44.3,48.4,44.2,48.4z"/></g></g>
<!-- <text x="0" y="115" fill="#000000" font-size="5px" font-weight="bold" font-family="'Helvetica Neue', Helvetica, Arial-Unicode, Arial, Sans-serif">Created by Yaroslav Samoilov</text><text x="0" y="120" fill="#000000" font-size="5px" font-weight="bold" font-family="'Helvetica Neue', Helvetica, Arial-Unicode, Arial, Sans-serif">from the Noun Project</text> -->
</svg>
