<svg xmlns="http://www.w3.org/2000/svg" xmlns:xlink="http://www.w3.org/1999/xlink" version="1.1" x="0px" y="0px" viewBox="0 0 100 125" enable-background="new 0 0 100 100" xml:space="preserve"><g><g><path d="M50,88c-9.4,0-17-7.6-17-17l0-0.3c0-0.1,1.9-7.4,0-16.5l0-0.2l0.1-0.2c0-0.1,2.2-8.6,0-19.6l0-0.2v-5c0-0.6,0.4-1,1-1    s1,0.4,1,1v4.9c2.1,10.5,0.4,18.6,0,20.1c1.8,8.9,0.2,16,0,17.1C35.1,79.3,41.8,86,50,86c8.2,0,14.9-6.6,15-14.9    c-0.3-1.1-2.1-7.8,0-17.1c-0.3-1.4-1.8-8.8,0-19.1V29c0-0.6,0.4-1,1-1s1,0.4,1,1l0,6.2c-1.9,10.9,0,18.5,0,18.6L67,54L67,54.2    c-2.2,9.6,0,16.4,0,16.5l0,0.3C67,80.4,59.4,88,50,88z"/></g><g><path d="M66.1,29.5c-0.6,0-1-0.4-1-1c0-2.7-1.7-5.9-3.1-5.9c-0.6,0-1-0.4-1-1s0.4-1,1-1c3.1,0,5.1,4.7,5.1,7.9    C67.1,29.1,66.6,29.5,66.1,29.5z"/></g><g><path d="M33.9,29.5c-0.6,0-1-0.4-1-1c0-3.2,2-7.9,5.1-7.9c0.6,0,1,0.4,1,1s-0.4,1-1,1c-1.4,0-3.1,3.2-3.1,5.9    C34.9,29.1,34.5,29.5,33.9,29.5z"/></g><g><path d="M63,25H37v-4c0-3.3,3.1-6,7-6h12c3.9,0,7,2.7,7,6V25z M39,23h22v-2c0-2.2-2.2-4-5-4H44c-2.8,0-5,1.8-5,4V23z"/></g><g><path d="M62,21H39c-0.6,0-1-0.4-1-1s0.4-1,1-1h23c0.6,0,1,0.4,1,1S62.6,21,62,21z"/></g><g><path d="M50,59c-3.3,0-6-2.7-6-6s2.7-6,6-6s6,2.7,6,6S53.3,59,50,59z M50,49c-2.2,0-4,1.8-4,4c0,2.2,1.8,4,4,4s4-1.8,4-4    C54,50.8,52.2,49,50,49z"/></g><g><path d="M37,78c-0.1,0-0.2,0-0.2,0c-0.5-0.1-0.9-0.7-0.7-1.2c0-0.1,2-7.9,2-11.8V40c0-5.8-4.4-8.1-4.4-8.1    c-0.5-0.2-0.7-0.8-0.4-1.3c0.2-0.5,0.8-0.7,1.3-0.4C34.7,30.2,40,33,40,40v25c0,4.1-1.9,11.9-2,12.2C37.9,77.7,37.4,78,37,78z"/></g><g><path d="M63,78c-0.4,0-0.9-0.3-1-0.8c-0.1-0.3-2-8.2-2-12.2V40c0-7,5.3-9.8,5.6-9.9c0.5-0.2,1.1,0,1.3,0.4c0.2,0.5,0,1.1-0.4,1.3    C66.3,32,62,34.2,62,40v25c0,3.8,2,11.7,2,11.8c0.1,0.5-0.2,1.1-0.7,1.2C63.2,78,63.1,78,63,78z"/></g></g><text x="0" y="115" fill="#000000" font-size="5px" font-weight="bold" font-family="'Helvetica Neue', Helvetica, Arial-Unicode, Arial, Sans-serif">Created by Yaroslav Samoilov</text><text x="0" y="120" fill="#000000" font-size="5px" font-weight="bold" font-family="'Helvetica Neue', Helvetica, Arial-Unicode, Arial, Sans-serif">from the Noun Project</text></svg>