<svg xmlns="http://www.w3.org/2000/svg" xmlns:xlink="http://www.w3.org/1999/xlink" version="1.1" x="0px" y="0px" viewBox="0 0 100 125" enable-background="new 0 0 100 100" xml:space="preserve"><g><g><path d="M59,90H39c-1.7,0-3-1.3-3-3V17c0-1.7,1.3-3,3-3h20c1.7,0,3,1.3,3,3v70C62,88.7,60.7,90,59,90z M39,16c-0.6,0-1,0.4-1,1v70    c0,0.6,0.4,1,1,1h20c0.6,0,1-0.4,1-1V17c0-0.6-0.4-1-1-1H39z"/></g><g><rect x="38" y="21" width="15" height="2"/></g><g><rect x="38" y="24" width="15" height="2"/></g><g><rect x="38" y="27" width="15" height="2"/></g><g><rect x="38" y="30" width="15" height="2"/></g><g><rect x="38" y="33" width="15" height="2"/></g><g><rect x="38" y="36" width="15" height="2"/></g><g><rect x="38" y="39" width="15" height="2"/></g><g><rect x="38" y="42" width="15" height="2"/></g><g><rect x="38" y="45" width="15" height="2"/></g><g><rect x="38" y="48" width="15" height="2"/></g><g><rect x="38" y="51" width="15" height="2"/></g><g><rect x="38" y="54" width="15" height="2"/></g><g><rect x="38" y="57" width="15" height="2"/></g><g><rect x="38" y="60" width="15" height="2"/></g><g><rect x="38" y="63" width="15" height="2"/></g><g><rect x="38" y="66" width="15" height="2"/></g><g><rect x="38" y="69" width="15" height="2"/></g><g><rect x="38" y="72" width="15" height="2"/></g><g><rect x="38" y="75" width="15" height="2"/></g><g><rect x="38" y="78" width="15" height="2"/></g><g><rect x="38" y="81" width="15" height="2"/></g></g><text x="0" y="115" fill="#000000" font-size="5px" font-weight="bold" font-family="'Helvetica Neue', Helvetica, Arial-Unicode, Arial, Sans-serif">Created by Yaroslav Samoilov</text><text x="0" y="120" fill="#000000" font-size="5px" font-weight="bold" font-family="'Helvetica Neue', Helvetica, Arial-Unicode, Arial, Sans-serif">from the Noun Project</text></svg>