<svg xmlns="http://www.w3.org/2000/svg" xmlns:xlink="http://www.w3.org/1999/xlink" version="1.1" x="0px" y="0px" viewBox="0 0 100 125" enable-background="new 0 0 100 100" xml:space="preserve"><g><path d="M91.3,34.1c-1.1,0-2-0.6-2.6-1c-1.1-0.7-1.6-1.1-3.1,0.2c-0.4,0.4-1,0.3-1.4-0.1c-0.4-0.4-0.3-1,0.1-1.4   c2.6-2.3,4.3-1.1,5.5-0.3c1,0.7,1.5,1,2.7,0.2c0.5-0.3,1.1-0.2,1.4,0.3c0.3,0.5,0.2,1.1-0.3,1.4C92.7,33.9,91.9,34.1,91.3,34.1z"/></g><g><path d="M93.3,38.6c-1.1,0-2-0.6-2.6-1c-1.1-0.7-1.6-1.1-3.1,0.2c-0.4,0.4-1,0.3-1.4-0.1c-0.4-0.4-0.3-1,0.1-1.4   c2.6-2.3,4.3-1.1,5.5-0.3c1,0.7,1.5,1,2.7,0.2c0.5-0.3,1.1-0.2,1.4,0.3c0.3,0.5,0.2,1.1-0.3,1.4C94.7,38.4,93.9,38.6,93.3,38.6z"/></g><g><path d="M25.3,54.2C16.3,54.2,9,47,9,38.1C9,29.2,16.3,22,25.3,22c0.6,0,1,0.4,1,1s-0.4,1-1,1C17.4,24,11,30.3,11,38.1   s6.4,14.1,14.3,14.1c5.2,0,10-2.8,12.5-7.3c0.3-0.5,0.9-0.7,1.4-0.4c0.5,0.3,0.7,0.9,0.4,1.4C36.7,51,31.2,54.2,25.3,54.2z"/></g><g><path d="M25.3,46.1c-4.5,0-8.2-3.7-8.2-8.2s3.7-8.2,8.2-8.2s8.2,3.7,8.2,8.2S29.8,46.1,25.3,46.1z M25.3,31.7   c-3.4,0-6.2,2.8-6.2,6.2c0,3.4,2.8,6.2,6.2,6.2s6.2-2.8,6.2-6.2C31.5,34.5,28.7,31.7,25.3,31.7z"/></g><g><path d="M29.2,78h-8.6c-2,0-3.5-2.1-3.5-3.9V52c0-0.6,0.4-1,1-1s1,0.4,1,1v22.1c0,0.9,0.8,1.9,1.5,1.9h8.6c0.8,0,1.8-1.1,1.8-1.9   V52c0-0.6,0.4-1,1-1s1,0.4,1,1v22.1C33,76,31.1,78,29.2,78z"/></g><g><path d="M66,46H39c-0.6,0-1-0.4-1-1s0.4-1,1-1h25V24H25c-0.6,0-1-0.4-1-1s0.4-1,1-1h41V46z"/></g><g><path d="M32,70h-5V56h5c0.6,0,1,0.4,1,1s-0.4,1-1,1h-3v10h3c0.6,0,1,0.4,1,1S32.6,70,32,70z"/></g><g><path d="M32,62h-3c-0.6,0-1-0.4-1-1s0.4-1,1-1h3c0.6,0,1,0.4,1,1S32.6,62,32,62z"/></g><g><path d="M32,66h-3c-0.6,0-1-0.4-1-1s0.4-1,1-1h3c0.6,0,1,0.4,1,1S32.6,66,32,66z"/></g><g><path d="M75.2,52.3c-0.9,0-1.9-0.3-2.9-0.8l-8-5.3c-0.5-0.3-0.6-0.9-0.3-1.4c0.3-0.5,0.9-0.6,1.4-0.3l7.9,5.3c0.8,0.4,2,0.8,3,0.2   c1.1-0.6,1.7-2.3,1.7-4.4V22.5c0-2.1-0.6-3.7-1.7-4.4c-0.8-0.5-1.7-0.4-2.9,0.1l-8,5c-0.5,0.3-1.1,0.1-1.4-0.3   c-0.3-0.5-0.1-1.1,0.3-1.4l8.1-5.1c2.3-1.1,3.9-0.7,4.9-0.1c1.6,1,2.6,3.2,2.6,6.1v23.1c0,2.9-1,5.1-2.7,6.1   C76.6,52.1,75.9,52.3,75.2,52.3z"/></g><text x="0" y="115" fill="#000000" font-size="5px" font-weight="bold" font-family="'Helvetica Neue', Helvetica, Arial-Unicode, Arial, Sans-serif">Created by Yaroslav Samoilov</text><text x="0" y="120" fill="#000000" font-size="5px" font-weight="bold" font-family="'Helvetica Neue', Helvetica, Arial-Unicode, Arial, Sans-serif">from the Noun Project</text></svg>